<?xml version="1.0" encoding="UTF-8" standalone="no"?>
<!-- Created with Inkscape (http://www.inkscape.org/) -->

<svg
   xmlns:dc="http://purl.org/dc/elements/1.1/"
   xmlns:cc="http://creativecommons.org/ns#"
   xmlns:rdf="http://www.w3.org/1999/02/22-rdf-syntax-ns#"
   xmlns:svg="http://www.w3.org/2000/svg"
   xmlns="http://www.w3.org/2000/svg"
   xmlns:sodipodi="http://sodipodi.sourceforge.net/DTD/sodipodi-0.dtd"
   xmlns:inkscape="http://www.inkscape.org/namespaces/inkscape"
   width="330"
   height="120"
   viewBox="0 0 87.312495 31.75"
   version="1.1"
   id="svg1771">
  <defs
     id="defs1765" />
  <sodipodi:namedview
     id="base"
     pagecolor="#ffffff"
     bordercolor="#666666"
     borderopacity="1.0"
     inkscape:pageopacity="0"
     inkscape:pageshadow="2"
     inkscape:zoom="1.979899"
     inkscape:cx="225.64116"
     inkscape:cy="41.373091"
     inkscape:document-units="mm"
     inkscape:current-layer="g2568"
     showgrid="false"
     units="px"
     inkscape:window-width="2538"
     inkscape:window-height="1394"
     inkscape:window-x="10"
     inkscape:window-y="34"
     inkscape:window-maximized="0" />
  <metadata
     id="metadata1768">
    <rdf:RDF>
      <cc:Work
         rdf:about="">
        <dc:format>image/svg+xml</dc:format>
        <dc:type
           rdf:resource="http://purl.org/dc/dcmitype/StillImage" />
        <dc:title></dc:title>
      </cc:Work>
    </rdf:RDF>
  </metadata>
  <g
     inkscape:label="Layer 1"
     inkscape:groupmode="layer"
     id="layer1"
     transform="translate(0,-265.24999)">
    <g
       id="g2568"
       transform="translate(-3.0594204)">
      <g
         aria-label="Perch"
         transform="matrix(0.59294071,0,0,0.59294071,-27.313052,257.16591)"
         style="font-style:normal;font-variant:normal;font-weight:normal;font-stretch:normal;font-size:40px;line-height:1.25;font-family:'Ikaros Sans';-inkscape-font-specification:'Ikaros Sans, Normal';font-variant-ligatures:normal;font-variant-caps:normal;font-variant-numeric:normal;font-feature-settings:normal;text-align:start;letter-spacing:0px;word-spacing:0px;writing-mode:lr-tb;text-anchor:start;fill:#a0615f;fill-opacity:1;stroke:none;stroke-opacity:1"
         id="flowRoot2549">
        <path
           d="m 138.94151,25.422579 c -1.44,-6.666667 -9.49333,-7.200001 -14.18667,-3.626667 -1.12,0.853333 -2.08,1.866667 -2.93333,2.986667 0.48,-1.386667 0.96,-2.773334 1.44,-4.213334 0.53333,-1.653333 -2.08,-2.4 -2.66667,-0.693333 -4.96,14.613334 -9.92,29.280001 -14.93333,43.946669 -0.53333,1.706666 2.02667,2.346666 2.66667,0.693333 2.18666,-5.546667 4.42666,-11.146667 6.61333,-16.746668 6.34667,-0.746666 12.8,-2.4 17.70667,-6.666666 4.37333,-3.733334 7.52,-9.813334 6.29333,-15.680001 z m -3.09333,6.293333 c -0.74667,2.346667 -2.13333,4.533334 -3.89333,6.293334 -4.16001,4.266667 -10.08001,6.08 -15.89334,6.88 1.01333,-2.56 2.02667,-5.066667 2.98667,-7.573333 1.17333,-2.933334 2.18666,-5.973334 3.62666,-8.746667 1.22667,-2.293334 2.93334,-4.480001 5.28,-5.600001 2.34667,-1.066666 5.76001,-1.12 7.46667,1.12 1.54667,2.08 1.12,5.280001 0.42667,7.626667 z"
           style="font-style:normal;font-variant:normal;font-weight:normal;font-stretch:normal;font-size:53.33333588px;font-family:'Ethons Styles';-inkscape-font-specification:'Ethons Styles';font-variant-ligatures:normal;font-variant-caps:normal;font-variant-numeric:normal;font-feature-settings:normal;text-align:start;letter-spacing:0px;writing-mode:lr-tb;text-anchor:start;fill:#a0615f;fill-opacity:1;stroke:none;stroke-opacity:1"
           id="path895"
           inkscape:connector-curvature="0" />
        <path
           d="m 149.76823,42.22258 c -2.4,2.4 -4.74667,5.013333 -7.78667,6.666667 -0.96,0.533333 -3.2,1.653333 -4.26667,0.64 -1.06666,-1.066667 0.42667,-3.680001 1.06667,-4.640001 1.17333,-1.866666 3.52,-3.68 5.76,-3.253333 0.10667,0 0.21333,0.05333 0.32,0.05333 0,0 0.0533,0 0.0533,0.05333 -0.0533,0 -0.0533,0.05333 -0.10666,0.106666 -0.26667,0.32 -0.64,0.586667 -0.96,0.853334 -1.44,1.066666 -3.09334,1.866666 -4.74667,2.613333 -1.38667,0.693333 -0.16,2.773334 1.28,2.133333 1.81333,-0.906666 3.73333,-1.813333 5.33333,-3.093333 0.74667,-0.586667 1.49334,-1.333333 1.70667,-2.293333 0.32,-1.440001 -0.85333,-2.453334 -2.13333,-2.773334 -3.04,-0.853333 -6.45334,1.333333 -8.16,3.68 -1.22667,1.706667 -2.4,4.106667 -2.13334,6.240001 0.32,2.026666 2.08,3.2 4.05334,3.093333 5.06666,-0.16 10.34664,-6.34666 13.6533,-9.653327 1.12,-1.12 -0.37334,-3.306667 -1.44,-2.186667 z m -4.74667,-0.64 c 0,-0.05333 0.0533,-0.106667 0,0 z"
           style="font-style:normal;font-variant:normal;font-weight:normal;font-stretch:normal;font-size:53.33333588px;font-family:'Ethons Styles';-inkscape-font-specification:'Ethons Styles';font-variant-ligatures:normal;font-variant-caps:normal;font-variant-numeric:normal;font-feature-settings:normal;text-align:start;letter-spacing:0px;writing-mode:lr-tb;text-anchor:start;fill:#a0615f;fill-opacity:1;stroke:none;stroke-opacity:1"
           id="path897"
           inkscape:connector-curvature="0"
           sodipodi:nodetypes="cccccccccccccccccccccc" />
        <path
           d="m 164.43483,46.115913 c -1.97333,1.866667 -3.78667,3.946667 -6.02667,5.493334 -0.69333,0.533333 -0.48,0.426666 -0.42666,-0.426667 0,-0.8 0.16,-1.6 0.32,-2.4 0.37333,-1.6 0.96,-3.093334 1.44,-4.64 0.32,-1.226667 0.21333,-2.506667 -0.90667,-3.306667 -1.12,-0.8 -2.61333,-0.746667 -3.94667,-1.066667 0.21334,-0.373333 0.42667,-0.746667 0.58667,-1.226667 0.42667,-1.386666 0.0533,-3.093333 -1.54667,-3.52 -1.38666,-0.426666 -2.82666,0.533334 -3.30666,1.813334 -0.42667,1.226666 -0.16,2.613333 0.64,3.626666 -0.10667,0.16 -0.21334,0.32 -0.32,0.426667 -0.96,1.226667 0.74666,2.986667 1.76,1.76 0.16,-0.266666 0.42666,-0.48 0.64,-0.746666 1.12,0.373333 2.34666,0.48 3.46666,0.746666 1.01334,0.213334 0.48,1.013334 0.21334,1.76 -0.32,0.96 -0.58667,1.92 -0.85334,2.88 -0.53333,2.026667 -1.81333,7.893334 2.24,7.093334 1.44,-0.32 2.88,-1.866667 3.94667,-2.826667 1.28,-1.226666 2.50667,-2.506666 3.78667,-3.68 1.17333,-1.066667 -0.53334,-2.826667 -1.70667,-1.76 z m -11.46667,-7.893334 c 0,0 -0.0533,0.05333 -0.0533,0.106667 0,-0.05333 0,-0.05333 0,-0.106667 -0.10667,-0.906666 0.53333,-0.906666 0.0533,0 z"
           style="font-style:normal;font-variant:normal;font-weight:normal;font-stretch:normal;font-size:53.33333588px;font-family:'Ethons Styles';-inkscape-font-specification:'Ethons Styles';font-variant-ligatures:normal;font-variant-caps:normal;font-variant-numeric:normal;font-feature-settings:normal;text-align:start;letter-spacing:0px;writing-mode:lr-tb;text-anchor:start;fill:#a0615f;fill-opacity:1;stroke:none;stroke-opacity:1"
           id="path899"
           inkscape:connector-curvature="0" />
        <path
           d="m 179.15485,41.475913 c -1.70666,1.493333 -3.2,3.093333 -4.90666,4.586667 -1.54667,1.333333 -3.62667,2.933333 -5.81334,3.04 -2.93333,0.16 -1.12,-3.68 -0.26666,-5.013334 0.64,-0.96 1.44,-1.813333 2.45333,-2.4 0.53333,-0.32 1.12,-0.533333 1.76,-0.693333 0.32,-0.05333 1.44,-0.16 1.54667,0.05333 0.69333,1.386667 2.82666,0.16 2.08,-1.28 -0.74667,-1.493333 -2.88,-1.386667 -4.26667,-1.12 -1.65333,0.373333 -3.14667,1.226667 -4.26667,2.453334 -1.97333,1.973333 -4.32,6.24 -2.50666,8.96 1.92,2.773333 5.97333,1.226667 8.21333,-0.16 2.93333,-1.813333 5.17333,-4.426667 7.68,-6.72 1.17333,-1.066667 -0.58667,-2.773334 -1.70667,-1.706667 z"
           style="font-style:normal;font-variant:normal;font-weight:normal;font-stretch:normal;font-size:53.33333588px;font-family:'Ethons Styles';-inkscape-font-specification:'Ethons Styles';font-variant-ligatures:normal;font-variant-caps:normal;font-variant-numeric:normal;font-feature-settings:normal;text-align:start;letter-spacing:0px;writing-mode:lr-tb;text-anchor:start;fill:#a0615f;fill-opacity:1;stroke:none;stroke-opacity:1"
           id="path901"
           inkscape:connector-curvature="0" />
        <path
           d="m 191.9549,42.755913 c -1.76,1.866667 -3.57333,3.68 -5.38666,5.493334 0.48,-1.386667 0.85333,-2.720001 0.96,-4.160001 0.10666,-1.226666 0.16,-2.506666 -0.53334,-3.573333 -0.74666,-1.013334 -1.86666,-1.493334 -3.14666,-1.333334 -1.06667,0.16 -1.97334,0.853334 -2.82667,1.706667 2.34667,-6.666667 4.69333,-13.386667 7.09333,-20.053334 0.48,-1.546667 -1.81333,-2.186667 -2.34666,-0.693333 -3.94667,11.04 -7.68,22.133334 -11.68001,33.120001 -0.48,1.493333 1.81334,2.133334 2.34667,0.64 0.8,-2.133333 1.76,-4.213333 2.98667,-6.24 1.06667,-1.813334 2.24,-3.84 3.68,-5.386667 0.74667,-0.8 1.86667,-0.96 2.02667,0.32 0.10666,0.96 -0.10667,2.08 -0.32,3.04 -0.53334,2.346667 -1.49334,4.533334 -2.24,6.826667 -0.42667,1.173333 1.12,2.026667 1.97333,1.173333 3.09333,-2.986666 6.18667,-6.026667 9.06667,-9.173333 1.12,-1.173334 -0.53334,-2.88 -1.65334,-1.706667 z"
           style="font-style:normal;font-variant:normal;font-weight:normal;font-stretch:normal;font-size:53.33333588px;font-family:'Ethons Styles';-inkscape-font-specification:'Ethons Styles';font-variant-ligatures:normal;font-variant-caps:normal;font-variant-numeric:normal;font-feature-settings:normal;text-align:start;letter-spacing:0px;writing-mode:lr-tb;text-anchor:start;fill:#a0615f;fill-opacity:1;stroke:none;stroke-opacity:1"
           id="path903"
           inkscape:connector-curvature="0" />
      </g>
      <g
         transform="matrix(0.14882813,0,0,0.13642578,-10.09989,255.69338)"
         id="g860"
         style="fill:#a0615f;fill-opacity:1">
        <path
           d="m 214.54019,120.13809 c 0,3.10694 -2.51807,5.625 -5.625,5.625 -3.10694,0 -5.625,-2.51806 -5.625,-5.625 0,-3.10546 2.51806,-5.625 5.625,-5.625 3.10693,0 5.625,2.51954 5.625,5.625 z m 0,0"
           id="path4584"
           inkscape:connector-curvature="0"
           style="fill:#a0615f;fill-opacity:1;stroke-width:0.375" />
        <path
           d="m 287.24038,216.9379 h -65.61329 c 2.14893,-1.81347 17.0127,-14.09472 17.0127,-36.56689 v -36.53174 h 30.52588 c 3.10694,0 5.625,-2.51953 5.625,-5.625 v -6.03223 c 0,-23.06835 -18.66211,-41.768552 -41.77002,-41.768552 h -24.11132 c -13.49121,0 -25.95264,4.489747 -35.97218,12.049802 h -12.22704 c -3.54053,0 -6.41895,-2.879882 -6.41895,-6.424802 0,-3.106935 -2.51953,-5.622068 -5.625,-5.622068 -3.10693,0 -5.625,2.520998 -5.625,5.627925 0,9.742675 7.92627,17.668945 17.66895,17.668945 h 0.84375 c -7.8252,10.11621 -12.48927,22.79444 -12.48927,36.54492 v 3.28272 c -20.77148,17.0962 -24.0996,39.41162 -24.0996,50.94141 v 12.45556 h -18.47461 c -3.10694,0 -5.625,2.51954 -5.625,5.625 0,3.10694 2.51806,5.625 5.625,5.625 h 42.57568 v 48.60059 c 0,3.10693 2.51807,5.625 5.625,5.625 19.7124,0 35.74952,-16.03711 35.74952,-35.74951 V 228.1879 h 12.84961 v 48.60059 c 0,3.10693 2.51952,5.625 5.625,5.625 3.10693,0 5.625,-2.51807 5.625,-5.625 V 228.1879 h 72.70019 c 3.10693,0 5.625,-2.51806 5.625,-5.625 0,-3.10546 -2.51807,-5.625 -5.625,-5.625 z m -23.69971,-84.75586 v 0.40723 h -24.90088 v -30.41308 c 19.84131,3.67236 24.90088,21.78515 24.90088,30.00585 z m -54.63134,-30.51855 h 18.48046 v 78.70752 c 0,20.18408 -16.32568,36.54931 -36.54639,36.54931 -0.006,0 -0.0132,0 -0.019,0 -2.56494,0 -5.11231,-0.001 -7.59814,-0.003 0.39404,-0.36914 13.23925,-11.17968 13.23925,-30.5039 v -42.17571 c 0,-3.10547 -2.52539,-5.625 -5.63232,-5.625 -10.73145,0 -21.07032,2.55469 -30.32813,7.36669 2.1753,-24.79833 23.05079,-44.31591 48.40431,-44.31591 z m -72.69434,102.81885 c 0,-28.48096 21.66064,-51.55957 49.00049,-54.33546 v 36.26661 c 0,14.25147 -10.95704,30.52441 -31.12646,30.52441 h -17.87403 z m 42.97559,42.18164 c 0,11.57373 -8.06837,21.29882 -18.87452,23.84765 V 228.1879 h 18.87452 z m 0,0"
           id="path4586"
           inkscape:connector-curvature="0"
           style="fill:#a0615f;fill-opacity:1;stroke-width:0.375" />
      </g>
    </g>
  </g>
</svg>
